<?xml version="1.0" encoding="utf-8"?>
<!-- Generator: Adobe Illustrator 16.0.0, SVG Export Plug-In . SVG Version: 6.00 Build 0)  -->
<!DOCTYPE svg PUBLIC "-//W3C//DTD SVG 1.1//EN" "http://www.w3.org/Graphics/SVG/1.1/DTD/svg11.dtd" [
	<!ENTITY ns_extend "http://ns.adobe.com/Extensibility/1.0/">
	<!ENTITY ns_ai "http://ns.adobe.com/AdobeIllustrator/10.0/">
	<!ENTITY ns_graphs "http://ns.adobe.com/Graphs/1.0/">
	<!ENTITY ns_vars "http://ns.adobe.com/Variables/1.0/">
	<!ENTITY ns_imrep "http://ns.adobe.com/ImageReplacement/1.0/">
	<!ENTITY ns_sfw "http://ns.adobe.com/SaveForWeb/1.0/">
	<!ENTITY ns_custom "http://ns.adobe.com/GenericCustomNamespace/1.0/">
	<!ENTITY ns_adobe_xpath "http://ns.adobe.com/XPath/1.0/">
]>
<svg version="1.1" id="Шар_1" xmlns:x="&ns_extend;" xmlns:i="&ns_ai;" xmlns:graph="&ns_graphs;"
	 xmlns="http://www.w3.org/2000/svg" xmlns:xlink="http://www.w3.org/1999/xlink" x="0px" y="0px" width="8px" height="4px"
	 viewBox="0 0 8 4" enable-background="new 0 0 8 4" xml:space="preserve">
<metadata>
	<sfw  xmlns="&ns_sfw;">
		<slices></slices>
		<sliceSourceBounds  width="8" height="4" x="-1" y="-0.5" bottomLeftOrigin="true"></sliceSourceBounds>
	</sfw>
</metadata>
<rect fill="#289870" width="1" height="1"/>
<rect x="1" opacity="0.2" fill="#289870" enable-background="new    " width="1" height="1"/>
<rect x="2" y="1" opacity="0.2" fill="#289870" enable-background="new    " width="1" height="1"/>
<rect x="4" y="1" opacity="0.2" fill="#289870" enable-background="new    " width="1" height="1"/>
<rect x="5" opacity="0.2" fill="#289870" enable-background="new    " width="1" height="1"/>
<rect x="6" y="1" opacity="0.5" fill="#289870" enable-background="new    " width="1" height="1"/>
<rect x="5" y="2" opacity="0.5" fill="#289870" enable-background="new    " width="1" height="1"/>
<rect x="3" y="3" opacity="0.5" fill="#289870" enable-background="new    " width="1" height="1"/>
<rect x="2" y="3" opacity="0.5" fill="#289870" enable-background="new    " width="1" height="1"/>
<rect x="4" y="3" opacity="0.5" fill="#289870" enable-background="new    " width="1" height="1"/>
<rect x="1" y="2" opacity="0.5" fill="#289870" enable-background="new    " width="1" height="1"/>
<rect y="1" opacity="0.5" fill="#289870" enable-background="new    " width="1" height="1"/>
<rect x="1" y="1" fill="#289870" width="1" height="1"/>
<rect x="2" y="2" fill="#289870" width="1" height="1"/>
<rect x="4" y="2" fill="#289870" width="1" height="1"/>
<rect x="3" y="2" fill="#289870" width="1" height="1"/>
<rect x="5" y="1" fill="#289870" width="1" height="1"/>
<rect x="6" fill="#289870" width="1" height="1"/>
<rect x="7" y="1" opacity="0.5" fill="#289870" enable-background="new    " width="1" height="1"/>
<rect x="7" fill="#289870" width="1" height="1"/>
</svg>
